<mxfile host="app.diagrams.net" modified="2024-02-14T14:52:43.003Z" agent="Mozilla/5.0 (Windows NT 10.0; Win64; x64) AppleWebKit/537.36 (KHTML, like Gecko) Chrome/121.0.0.0 Safari/537.36" etag="_U0B3-EEhbB8GczvM6CX" version="23.1.4" type="onedrive">
  <diagram name="Page-1" id="w00OtljMII1SWUhe3SN1">
    <mxGraphModel grid="1" page="1" gridSize="10" guides="1" tooltips="1" connect="1" arrows="1" fold="1" pageScale="1" pageWidth="827" pageHeight="1169" math="0" shadow="0">
      <root>
        <mxCell id="0" />
        <mxCell id="1" parent="0" />
        <mxCell id="ijxQJUB8ykVVMwKHifPE-1" value="" style="rounded=1;whiteSpace=wrap;html=1;" vertex="1" parent="1">
          <mxGeometry x="80" y="120" width="670" height="330" as="geometry" />
        </mxCell>
        <mxCell id="ijxQJUB8ykVVMwKHifPE-2" value="Enter(Ok)" style="ellipse;whiteSpace=wrap;html=1;aspect=fixed;" vertex="1" parent="1">
          <mxGeometry x="600" y="330" width="60" height="60" as="geometry" />
        </mxCell>
        <mxCell id="ijxQJUB8ykVVMwKHifPE-3" value="(aussi pour volume)" style="ellipse;whiteSpace=wrap;html=1;aspect=fixed;" vertex="1" parent="1">
          <mxGeometry x="160" y="360" width="50" height="50" as="geometry" />
        </mxCell>
        <mxCell id="ijxQJUB8ykVVMwKHifPE-4" value="&amp;gt;" style="ellipse;whiteSpace=wrap;html=1;aspect=fixed;" vertex="1" parent="1">
          <mxGeometry x="210" y="310" width="50" height="50" as="geometry" />
        </mxCell>
        <mxCell id="ijxQJUB8ykVVMwKHifPE-5" value="&amp;lt;" style="ellipse;whiteSpace=wrap;html=1;aspect=fixed;" vertex="1" parent="1">
          <mxGeometry x="110" y="310" width="50" height="50" as="geometry" />
        </mxCell>
        <mxCell id="ijxQJUB8ykVVMwKHifPE-6" value="^" style="ellipse;whiteSpace=wrap;html=1;aspect=fixed;" vertex="1" parent="1">
          <mxGeometry x="160" y="260" width="50" height="50" as="geometry" />
        </mxCell>
        <mxCell id="ijxQJUB8ykVVMwKHifPE-8" value="Param" style="rounded=1;whiteSpace=wrap;html=1;" vertex="1" parent="1">
          <mxGeometry x="620" y="160" width="70" height="30" as="geometry" />
        </mxCell>
        <mxCell id="ijxQJUB8ykVVMwKHifPE-11" value="Capture d&#39;écran" style="rounded=1;whiteSpace=wrap;html=1;" vertex="1" parent="1">
          <mxGeometry x="160" y="160" width="50" height="30" as="geometry" />
        </mxCell>
        <mxCell id="ijxQJUB8ykVVMwKHifPE-14" value="&amp;lt;&amp;lt;" style="rounded=1;whiteSpace=wrap;html=1;" vertex="1" parent="1">
          <mxGeometry x="330" y="385" width="50" height="25" as="geometry" />
        </mxCell>
        <mxCell id="ijxQJUB8ykVVMwKHifPE-15" value="&amp;gt;&amp;gt;" style="rounded=1;whiteSpace=wrap;html=1;" vertex="1" parent="1">
          <mxGeometry x="414" y="385" width="50" height="25" as="geometry" />
        </mxCell>
        <mxCell id="ijxQJUB8ykVVMwKHifPE-17" value="Écran retransmet l&#39;écran principal (s&#39;éteint et s&#39;allume)" style="rounded=0;whiteSpace=wrap;html=1;" vertex="1" parent="1">
          <mxGeometry x="290" y="150" width="230" height="130" as="geometry" />
        </mxCell>
        <mxCell id="ijxQJUB8ykVVMwKHifPE-18" value="Start(arrete l&#39;écran et le commence)" style="rounded=0;whiteSpace=wrap;html=1;" vertex="1" parent="1">
          <mxGeometry x="385" y="300" width="40" height="20" as="geometry" />
        </mxCell>
      </root>
    </mxGraphModel>
  </diagram>
</mxfile>
